<?xml version="1.0" encoding="UTF-8" standalone="no"?>
<svg width="31px" height="30px" viewBox="0 0 31 30" version="1.1" xmlns="http://www.w3.org/2000/svg" xmlns:xlink="http://www.w3.org/1999/xlink" xmlns:sketch="http://www.bohemiancoding.com/sketch/ns">
    <!-- Generator: Sketch 3.4 (15575) - http://www.bohemiancoding.com/sketch -->
    <title>Logo</title>
    <desc>Created with Sketch.</desc>
    <defs></defs>
    <g id="Page-1" stroke="none" stroke-width="1" fill="none" fill-rule="evenodd" sketch:type="MSPage">
        <g id="Logo" sketch:type="MSArtboardGroup">
            <g id="Group-Copy" sketch:type="MSLayerGroup">
                <path d="M7.24675078,11.7760833 L3.5580903,8.99722029 L0.00611718156,11.7073827 L15.1822118,0 L15.1822118,5.65939428 L7.24675078,11.7760833 L11.1643737,5.26534527" id="Fill-88-Copy" fill="#7F9CBF" sketch:type="MSShapeGroup"></path>
                <path d="M3.64963708,20.8463313 L0,18.0004693 L3.64963708,20.8463313 M7.17271179,18.1308515 L3.47983256,15.3426299 L0,18.0004693 L4.08311322,14.8530055 L7.75405497,17.6827027 L7.17271179,18.1308515 M11.3828093,14.8857606 L7.66968006,12.0886058 L15.1822118,6.29776591 L15.1822118,11.9571602 L11.3828093,14.8857606" id="Fill-89-Copy" fill="#7F9CBF" sketch:type="MSShapeGroup"></path>
                <path d="M15.1557659,29.8290661 L3.68731608,20.8860831 L7.21039079,18.1706033 L15.1557659,24.1698845 L15.1557659,29.8290661" id="Fill-90-Copy" fill="#7F9CBF" sketch:type="MSShapeGroup"></path>
                <path d="M3.64963708,20.8867689 L0,18.040907 L3.47983256,15.3830675 L7.17271179,18.1712891 L3.64963708,20.8867689" id="Fill-91-Copy" fill="#4E6D93" sketch:type="MSShapeGroup"></path>
                <path d="M15.1180869,23.4272073 L7.75405497,17.7510101 L11.3828093,14.9540681 L15.1180869,17.7678131 L15.1180869,23.4272073 M4.08311322,14.921313 L0,11.7740619 L0.00611718156,11.7695953 L3.66503551,14.5990798 L7.24675078,11.8382959 L7.66968006,12.1569133 L4.08311322,14.921313" id="Fill-92-Copy" fill="#7F9CBF" sketch:type="MSShapeGroup"></path>
                <path d="M3.65891832,14.5217064 L0,11.692222 L3.55197312,8.98205958 L7.2406336,11.7609226 L3.65891832,14.5217064" id="Fill-93-Copy" fill="#4E6D93" sketch:type="MSShapeGroup"></path>
                <path d="M7.76795962,17.6734183 L4.09701787,14.8437212 L7.6835847,12.0793215 L11.3967139,14.8764763 L7.76795962,17.6734183" id="Fill-94-Copy" fill="#4E6D93" sketch:type="MSShapeGroup"></path>
                <path d="M23.6065544,11.7760833 L15.6710934,5.65939428 L15.6710934,0 L30.8533052,11.7027034 L30.8473989,11.7073827 L27.2954258,8.99722029 L23.6065544,11.7760833" id="Fill-95-Copy" fill="#7F9CBF" sketch:type="MSShapeGroup"></path>
                <path d="M27.2036681,20.8463313 L27.2036681,20.8463313 L30.8533052,18.0004693 L27.2036681,20.8463313 M23.6805934,18.1308515 L23.0992502,17.6827027 L26.770192,14.8530055 L30.8533052,18.0004693 L27.3734726,15.3426299 L23.6805934,18.1308515 M19.4704959,14.8857606 L15.6710934,11.9571602 L15.6710934,6.29776591 L23.1836251,12.0886058 L19.4704959,14.8857606" id="Fill-96-Copy" fill="#7F9CBF" sketch:type="MSShapeGroup"></path>
                <path d="M15.7735188,29.8290661 L15.7735188,24.1698845 L23.7188939,18.1706033 L27.2419686,20.8860831 L15.7735188,29.8290661" id="Fill-97-Copy" fill="#7F9CBF" sketch:type="MSShapeGroup"></path>
                <path d="M27.1833529,20.8867689 L23.6602782,18.1712891 L27.3531574,15.3830675 L30.83299,18.040907 L27.1833529,20.8867689" id="Fill-98-Copy" fill="#4E6D93" sketch:type="MSShapeGroup"></path>
                <path d="M15.7735188,23.4272073 L15.7735188,17.7678131 L19.5087964,14.9540681 L23.1375507,17.7510101 L15.7735188,23.4272073 M26.8084925,14.921313 L23.2219256,12.1569133 L23.6448549,11.8382959 L27.2267811,14.5990798 L30.8856994,11.7695953 L30.8916057,11.7740619 L26.8084925,14.921313" id="Fill-99-Copy" fill="#7F9CBF" sketch:type="MSShapeGroup"></path>
                <path d="M27.139779,14.5217064 L23.5578528,11.7609226 L27.2467242,8.98205958 L30.7986973,11.692222 L27.139779,14.5217064" id="Fill-100-Copy" fill="#4E6D93" sketch:type="MSShapeGroup"></path>
                <path d="M23.0895892,17.6734183 L19.4608349,14.8764763 L23.1739641,12.0793215 L26.7605309,14.8437212 L23.0895892,17.6734183" id="Fill-101-Copy" fill="#4E6D93" sketch:type="MSShapeGroup"></path>
            </g>
        </g>
    </g>
</svg>